<mxfile host="app.diagrams.net" modified="2024-04-29T12:20:38.689Z" agent="Mozilla/5.0 (X11; Linux x86_64; rv:121.0) Gecko/20100101 Firefox/121.0" version="24.3.1" etag="SIGmB2QthSaBTtfz4VH_" type="github">
  <diagram name="PÃ¡gina-1" id="9Ywwib8D46y9mU8HO7vY">
    <mxGraphModel>
      <root>
        <mxCell id="0" />
        <mxCell id="1" parent="0" />
      </root>
    </mxGraphModel>
  </diagram>
</mxfile>
